<svg width="19" height="16" viewBox="0 0 19 16" fill="none" xmlns="http://www.w3.org/2000/svg">
<path fill-rule="evenodd" clip-rule="evenodd" d="M8.90955 4.6592L8.86992 4.00755C8.75112 2.31869 9.79385 0.776082 11.4438 0.177714C12.051 -0.0350812 13.0805 -0.0616806 13.7537 0.124515C14.0176 0.204313 14.5193 0.470228 14.8756 0.709623L15.5224 1.14847L16.2351 0.922418C16.6311 0.802682 17.1591 0.603225 17.3966 0.470229C17.621 0.350571 17.819 0.284033 17.819 0.323971C17.819 0.550027 17.3307 1.32133 16.9215 1.74684C16.3671 2.34529 16.5255 2.39849 17.6475 1.9995C18.3206 1.77344 18.3338 1.77344 18.2018 2.0261C18.1226 2.15909 17.7134 2.62454 17.2778 3.05006C16.5387 3.7815 16.4991 3.8613 16.4991 4.473C16.4991 5.41716 16.0503 7.38528 15.6015 8.46244C14.77 10.4838 12.9881 12.5715 11.2062 13.6221C8.69836 15.0982 5.35889 15.4705 2.54747 14.6062C1.61033 14.3136 0 13.5689 0 13.436C0 13.396 0.488344 13.3428 1.08236 13.3296C2.32307 13.303 3.56379 12.9572 4.61973 12.3455L5.33255 11.92L4.51414 11.6407C3.3526 11.2417 2.30987 10.3242 2.04592 9.4598C1.96666 9.18054 1.99308 9.1672 2.73224 9.1672L3.49782 9.15394L2.85105 8.84809C2.08547 8.46244 1.38593 7.81079 1.04273 7.14589C0.791917 6.66718 0.475213 5.45702 0.567598 5.36396C0.593938 5.3241 0.871172 5.40382 1.18795 5.51022C2.09868 5.84267 2.21748 5.76288 1.68951 5.20437C0.699533 4.19375 0.395958 2.691 0.871172 1.26813L1.09557 0.629824L1.96666 1.49419C3.74864 3.23625 5.84731 4.27355 8.24956 4.5794L8.90955 4.6592Z" fill="white"/>
</svg>
