<svg width="222" height="35" viewBox="0 0 222 35" fill="none" xmlns="http://www.w3.org/2000/svg">
<path d="M70.58 10.84H76.16C77.0933 10.84 77.9933 10.9867 78.86 11.28C79.7267 11.56 80.4933 11.9933 81.16 12.58C81.8267 13.1667 82.36 13.9067 82.76 14.8C83.16 15.68 83.36 16.72 83.36 17.92C83.36 19.1333 83.1267 20.1867 82.66 21.08C82.2067 21.96 81.6133 22.6933 80.88 23.28C80.16 23.8533 79.3533 24.2867 78.46 24.58C77.58 24.86 76.7133 25 75.86 25H70.58V10.84ZM74.98 22.72C75.7667 22.72 76.5067 22.6333 77.2 22.46C77.9067 22.2733 78.52 21.9933 79.04 21.62C79.56 21.2333 79.9667 20.74 80.26 20.14C80.5667 19.5267 80.72 18.7867 80.72 17.92C80.72 17.0667 80.5867 16.3333 80.32 15.72C80.0533 15.1067 79.68 14.6133 79.2 14.24C78.7333 13.8533 78.1733 13.5733 77.52 13.4C76.88 13.2133 76.1733 13.12 75.4 13.12H73.1V22.72H74.98ZM91.5358 23.68H91.4758C91.1291 24.2267 90.6891 24.6267 90.1558 24.88C89.6224 25.12 89.0358 25.24 88.3958 25.24C87.9558 25.24 87.5224 25.18 87.0958 25.06C86.6824 24.94 86.3091 24.76 85.9758 24.52C85.6558 24.28 85.3958 23.98 85.1958 23.62C84.9958 23.26 84.8958 22.84 84.8958 22.36C84.8958 21.84 84.9891 21.4 85.1758 21.04C85.3624 20.6667 85.6091 20.36 85.9158 20.12C86.2358 19.8667 86.6024 19.6667 87.0158 19.52C87.4291 19.3733 87.8558 19.2667 88.2958 19.2C88.7491 19.12 89.2024 19.0733 89.6558 19.06C90.1091 19.0333 90.5358 19.02 90.9358 19.02H91.5358V18.76C91.5358 18.16 91.3291 17.7133 90.9158 17.42C90.5024 17.1133 89.9758 16.96 89.3358 16.96C88.8291 16.96 88.3558 17.0533 87.9158 17.24C87.4758 17.4133 87.0958 17.6533 86.7758 17.96L85.5158 16.7C86.0491 16.1533 86.6691 15.76 87.3758 15.52C88.0958 15.28 88.8358 15.16 89.5958 15.16C90.2758 15.16 90.8491 15.24 91.3158 15.4C91.7824 15.5467 92.1691 15.74 92.4758 15.98C92.7824 16.22 93.0158 16.5 93.1758 16.82C93.3491 17.1267 93.4691 17.44 93.5358 17.76C93.6158 18.08 93.6624 18.3933 93.6758 18.7C93.6891 18.9933 93.6958 19.2533 93.6958 19.48V25H91.5358V23.68ZM91.3958 20.7H90.8958C90.5624 20.7 90.1891 20.7133 89.7758 20.74C89.3624 20.7667 88.9691 20.8333 88.5958 20.94C88.2358 21.0333 87.9291 21.18 87.6758 21.38C87.4224 21.5667 87.2958 21.8333 87.2958 22.18C87.2958 22.4067 87.3424 22.6 87.4358 22.76C87.5424 22.9067 87.6758 23.0333 87.8358 23.14C87.9958 23.2467 88.1758 23.3267 88.3758 23.38C88.5758 23.42 88.7758 23.44 88.9758 23.44C89.8024 23.44 90.4091 23.2467 90.7958 22.86C91.1958 22.46 91.3958 21.92 91.3958 21.24V20.7ZM95.158 17.44V15.4H97.138V12.62H99.538V15.4H102.178V17.44H99.538V21.64C99.538 22.12 99.6246 22.5 99.798 22.78C99.9846 23.06 100.345 23.2 100.878 23.2C101.091 23.2 101.325 23.18 101.578 23.14C101.831 23.0867 102.031 23.0067 102.178 22.9V24.92C101.925 25.04 101.611 25.12 101.238 25.16C100.878 25.2133 100.558 25.24 100.278 25.24C99.638 25.24 99.1113 25.1667 98.698 25.02C98.298 24.8867 97.978 24.68 97.738 24.4C97.5113 24.1067 97.3513 23.7467 97.258 23.32C97.178 22.8933 97.138 22.4 97.138 21.84V17.44H95.158ZM110.051 23.68H109.991C109.645 24.2267 109.205 24.6267 108.671 24.88C108.138 25.12 107.551 25.24 106.911 25.24C106.471 25.24 106.038 25.18 105.611 25.06C105.198 24.94 104.825 24.76 104.491 24.52C104.171 24.28 103.911 23.98 103.711 23.62C103.511 23.26 103.411 22.84 103.411 22.36C103.411 21.84 103.505 21.4 103.691 21.04C103.878 20.6667 104.125 20.36 104.431 20.12C104.751 19.8667 105.118 19.6667 105.531 19.52C105.945 19.3733 106.371 19.2667 106.811 19.2C107.265 19.12 107.718 19.0733 108.171 19.06C108.625 19.0333 109.051 19.02 109.451 19.02H110.051V18.76C110.051 18.16 109.845 17.7133 109.431 17.42C109.018 17.1133 108.491 16.96 107.851 16.96C107.345 16.96 106.871 17.0533 106.431 17.24C105.991 17.4133 105.611 17.6533 105.291 17.96L104.031 16.7C104.565 16.1533 105.185 15.76 105.891 15.52C106.611 15.28 107.351 15.16 108.111 15.16C108.791 15.16 109.365 15.24 109.831 15.4C110.298 15.5467 110.685 15.74 110.991 15.98C111.298 16.22 111.531 16.5 111.691 16.82C111.865 17.1267 111.985 17.44 112.051 17.76C112.131 18.08 112.178 18.3933 112.191 18.7C112.205 18.9933 112.211 19.2533 112.211 19.48V25H110.051V23.68ZM109.911 20.7H109.411C109.078 20.7 108.705 20.7133 108.291 20.74C107.878 20.7667 107.485 20.8333 107.111 20.94C106.751 21.0333 106.445 21.18 106.191 21.38C105.938 21.5667 105.811 21.8333 105.811 22.18C105.811 22.4067 105.858 22.6 105.951 22.76C106.058 22.9067 106.191 23.0333 106.351 23.14C106.511 23.2467 106.691 23.3267 106.891 23.38C107.091 23.42 107.291 23.44 107.491 23.44C108.318 23.44 108.925 23.2467 109.311 22.86C109.711 22.46 109.911 21.92 109.911 21.24V20.7ZM113.434 10.84H116.194L118.854 21.04H118.894L122.074 10.84H124.554L127.674 21.04H127.714L130.494 10.84H133.054L128.934 25H126.534L123.254 14.22H123.214L119.934 25H117.614L113.434 10.84ZM139.68 23.68H139.62C139.274 24.2267 138.834 24.6267 138.3 24.88C137.767 25.12 137.18 25.24 136.54 25.24C136.1 25.24 135.667 25.18 135.24 25.06C134.827 24.94 134.454 24.76 134.12 24.52C133.8 24.28 133.54 23.98 133.34 23.62C133.14 23.26 133.04 22.84 133.04 22.36C133.04 21.84 133.134 21.4 133.32 21.04C133.507 20.6667 133.754 20.36 134.06 20.12C134.38 19.8667 134.747 19.6667 135.16 19.52C135.574 19.3733 136 19.2667 136.44 19.2C136.894 19.12 137.347 19.0733 137.8 19.06C138.254 19.0333 138.68 19.02 139.08 19.02H139.68V18.76C139.68 18.16 139.474 17.7133 139.06 17.42C138.647 17.1133 138.12 16.96 137.48 16.96C136.974 16.96 136.5 17.0533 136.06 17.24C135.62 17.4133 135.24 17.6533 134.92 17.96L133.66 16.7C134.194 16.1533 134.814 15.76 135.52 15.52C136.24 15.28 136.98 15.16 137.74 15.16C138.42 15.16 138.994 15.24 139.46 15.4C139.927 15.5467 140.314 15.74 140.62 15.98C140.927 16.22 141.16 16.5 141.32 16.82C141.494 17.1267 141.614 17.44 141.68 17.76C141.76 18.08 141.807 18.3933 141.82 18.7C141.834 18.9933 141.84 19.2533 141.84 19.48V25H139.68V23.68ZM139.54 20.7H139.04C138.707 20.7 138.334 20.7133 137.92 20.74C137.507 20.7667 137.114 20.8333 136.74 20.94C136.38 21.0333 136.074 21.18 135.82 21.38C135.567 21.5667 135.44 21.8333 135.44 22.18C135.44 22.4067 135.487 22.6 135.58 22.76C135.687 22.9067 135.82 23.0333 135.98 23.14C136.14 23.2467 136.32 23.3267 136.52 23.38C136.72 23.42 136.92 23.44 137.12 23.44C137.947 23.44 138.554 23.2467 138.94 22.86C139.34 22.46 139.54 21.92 139.54 21.24V20.7ZM144.423 15.4H146.823V16.92H146.863C147.129 16.36 147.509 15.9267 148.003 15.62C148.496 15.3133 149.063 15.16 149.703 15.16C149.849 15.16 149.989 15.1733 150.123 15.2C150.269 15.2267 150.416 15.26 150.563 15.3V17.62C150.363 17.5667 150.163 17.5267 149.963 17.5C149.776 17.46 149.589 17.44 149.403 17.44C148.843 17.44 148.389 17.5467 148.043 17.76C147.709 17.96 147.449 18.1933 147.263 18.46C147.089 18.7267 146.969 18.9933 146.903 19.26C146.849 19.5267 146.823 19.7267 146.823 19.86V25H144.423V15.4ZM153.764 21.04C153.844 21.76 154.124 22.32 154.604 22.72C155.084 23.12 155.664 23.32 156.344 23.32C156.944 23.32 157.444 23.2 157.844 22.96C158.258 22.7067 158.618 22.3933 158.924 22.02L160.644 23.32C160.084 24.0133 159.458 24.5067 158.764 24.8C158.071 25.0933 157.344 25.24 156.584 25.24C155.864 25.24 155.184 25.12 154.544 24.88C153.904 24.64 153.351 24.3 152.884 23.86C152.418 23.42 152.044 22.8933 151.764 22.28C151.498 21.6533 151.364 20.96 151.364 20.2C151.364 19.44 151.498 18.7533 151.764 18.14C152.044 17.5133 152.418 16.98 152.884 16.54C153.351 16.1 153.904 15.76 154.544 15.52C155.184 15.28 155.864 15.16 156.584 15.16C157.251 15.16 157.858 15.28 158.404 15.52C158.964 15.7467 159.438 16.08 159.824 16.52C160.224 16.96 160.531 17.5067 160.744 18.16C160.971 18.8 161.084 19.54 161.084 20.38V21.04H153.764ZM158.684 19.24C158.671 18.5333 158.451 17.98 158.024 17.58C157.598 17.1667 157.004 16.96 156.244 16.96C155.524 16.96 154.951 17.1667 154.524 17.58C154.111 17.9933 153.858 18.5467 153.764 19.24H158.684ZM165.729 16.74H165.769C165.955 16.34 166.282 15.98 166.749 15.66C167.229 15.3267 167.842 15.16 168.589 15.16C169.229 15.16 169.769 15.2667 170.209 15.48C170.662 15.6933 171.029 15.9733 171.309 16.32C171.589 16.6667 171.789 17.0667 171.909 17.52C172.029 17.9733 172.089 18.4467 172.089 18.94V25H169.689V20.14C169.689 19.8733 169.675 19.58 169.649 19.26C169.622 18.9267 169.549 18.62 169.429 18.34C169.322 18.0467 169.149 17.8067 168.909 17.62C168.669 17.42 168.342 17.32 167.929 17.32C167.529 17.32 167.189 17.3867 166.909 17.52C166.642 17.6533 166.415 17.8333 166.229 18.06C166.055 18.2867 165.929 18.5467 165.849 18.84C165.769 19.1333 165.729 19.44 165.729 19.76V25H163.329V9.88H165.729V16.74ZM174.333 20.2C174.333 19.44 174.466 18.7533 174.733 18.14C175.013 17.5133 175.386 16.98 175.853 16.54C176.32 16.1 176.873 15.76 177.513 15.52C178.153 15.28 178.833 15.16 179.553 15.16C180.273 15.16 180.953 15.28 181.593 15.52C182.233 15.76 182.786 16.1 183.253 16.54C183.72 16.98 184.086 17.5133 184.353 18.14C184.633 18.7533 184.773 19.44 184.773 20.2C184.773 20.96 184.633 21.6533 184.353 22.28C184.086 22.8933 183.72 23.42 183.253 23.86C182.786 24.3 182.233 24.64 181.593 24.88C180.953 25.12 180.273 25.24 179.553 25.24C178.833 25.24 178.153 25.12 177.513 24.88C176.873 24.64 176.32 24.3 175.853 23.86C175.386 23.42 175.013 22.8933 174.733 22.28C174.466 21.6533 174.333 20.96 174.333 20.2ZM176.733 20.2C176.733 20.5733 176.793 20.9333 176.913 21.28C177.046 21.6267 177.233 21.9333 177.473 22.2C177.726 22.4667 178.026 22.68 178.373 22.84C178.72 23 179.113 23.08 179.553 23.08C179.993 23.08 180.386 23 180.733 22.84C181.08 22.68 181.373 22.4667 181.613 22.2C181.866 21.9333 182.053 21.6267 182.173 21.28C182.306 20.9333 182.373 20.5733 182.373 20.2C182.373 19.8267 182.306 19.4667 182.173 19.12C182.053 18.7733 181.866 18.4667 181.613 18.2C181.373 17.9333 181.08 17.72 180.733 17.56C180.386 17.4 179.993 17.32 179.553 17.32C179.113 17.32 178.72 17.4 178.373 17.56C178.026 17.72 177.726 17.9333 177.473 18.2C177.233 18.4667 177.046 18.7733 176.913 19.12C176.793 19.4667 176.733 19.8267 176.733 20.2ZM195.78 25H193.5V23.46H193.46C193.233 23.94 192.887 24.36 192.42 24.72C191.953 25.0667 191.32 25.24 190.52 25.24C189.88 25.24 189.333 25.14 188.88 24.94C188.44 24.7267 188.08 24.4467 187.8 24.1C187.52 23.74 187.32 23.3333 187.2 22.88C187.08 22.4267 187.02 21.9533 187.02 21.46V15.4H189.42V20.26C189.42 20.5267 189.433 20.8267 189.46 21.16C189.487 21.48 189.553 21.7867 189.66 22.08C189.78 22.36 189.953 22.6 190.18 22.8C190.42 22.9867 190.753 23.08 191.18 23.08C191.58 23.08 191.913 23.0133 192.18 22.88C192.46 22.7467 192.687 22.5667 192.86 22.34C193.047 22.1133 193.18 21.8533 193.26 21.56C193.34 21.2667 193.38 20.96 193.38 20.64V15.4H195.78V25ZM203.625 18.06C203.158 17.4067 202.531 17.08 201.745 17.08C201.425 17.08 201.111 17.16 200.805 17.32C200.498 17.48 200.345 17.74 200.345 18.1C200.345 18.3933 200.471 18.6067 200.725 18.74C200.978 18.8733 201.298 18.9867 201.685 19.08C202.071 19.1733 202.485 19.2733 202.925 19.38C203.378 19.4733 203.798 19.6267 204.185 19.84C204.571 20.04 204.891 20.32 205.145 20.68C205.398 21.04 205.525 21.5333 205.525 22.16C205.525 22.7333 205.398 23.22 205.145 23.62C204.905 24.0067 204.585 24.32 204.185 24.56C203.798 24.8 203.358 24.9733 202.865 25.08C202.371 25.1867 201.878 25.24 201.385 25.24C200.638 25.24 199.951 25.1333 199.325 24.92C198.698 24.7067 198.138 24.32 197.645 23.76L199.245 22.26C199.551 22.6067 199.878 22.8933 200.225 23.12C200.585 23.3333 201.018 23.44 201.525 23.44C201.698 23.44 201.878 23.42 202.065 23.38C202.251 23.34 202.425 23.2733 202.585 23.18C202.745 23.0867 202.871 22.9733 202.965 22.84C203.071 22.6933 203.125 22.5267 203.125 22.34C203.125 22.0067 202.998 21.76 202.745 21.6C202.491 21.44 202.171 21.3133 201.785 21.22C201.398 21.1133 200.978 21.02 200.525 20.94C200.085 20.8467 199.671 20.7067 199.285 20.52C198.898 20.32 198.578 20.0467 198.325 19.7C198.071 19.3533 197.945 18.8733 197.945 18.26C197.945 17.7267 198.051 17.2667 198.265 16.88C198.491 16.48 198.785 16.1533 199.145 15.9C199.505 15.6467 199.918 15.46 200.385 15.34C200.851 15.22 201.325 15.16 201.805 15.16C202.445 15.16 203.078 15.2733 203.705 15.5C204.331 15.7133 204.838 16.0867 205.225 16.62L203.625 18.06ZM209.311 21.04C209.391 21.76 209.671 22.32 210.151 22.72C210.631 23.12 211.211 23.32 211.891 23.32C212.491 23.32 212.991 23.2 213.391 22.96C213.805 22.7067 214.165 22.3933 214.471 22.02L216.191 23.32C215.631 24.0133 215.005 24.5067 214.311 24.8C213.618 25.0933 212.891 25.24 212.131 25.24C211.411 25.24 210.731 25.12 210.091 24.88C209.451 24.64 208.898 24.3 208.431 23.86C207.965 23.42 207.591 22.8933 207.311 22.28C207.045 21.6533 206.911 20.96 206.911 20.2C206.911 19.44 207.045 18.7533 207.311 18.14C207.591 17.5133 207.965 16.98 208.431 16.54C208.898 16.1 209.451 15.76 210.091 15.52C210.731 15.28 211.411 15.16 212.131 15.16C212.798 15.16 213.405 15.28 213.951 15.52C214.511 15.7467 214.985 16.08 215.371 16.52C215.771 16.96 216.078 17.5067 216.291 18.16C216.518 18.8 216.631 19.54 216.631 20.38V21.04H209.311ZM214.231 19.24C214.218 18.5333 213.998 17.98 213.571 17.58C213.145 17.1667 212.551 16.96 211.791 16.96C211.071 16.96 210.498 17.1667 210.071 17.58C209.658 17.9933 209.405 18.5467 209.311 19.24H214.231Z" fill="#212353"/>
<rect y="15" width="20" height="20" rx="10" fill="#9C69E2"/>
<rect x="29" width="20" height="35" rx="10" fill="#F063B8"/>
</svg>
