<svg width="443" height="365" viewBox="0 0 443 365" fill="none" xmlns="http://www.w3.org/2000/svg">
<path opacity="0.1" d="M53.2894 48.7355C57.3267 24.6466 78.1768 7.00012 102.602 7.00012H392.284C419.898 7.00012 442.284 29.3859 442.284 57.0001V315C442.284 342.614 419.898 365 392.284 365H59.3614C28.4461 365 4.93913 337.226 10.0492 306.736L53.2894 48.7355Z" fill="#2D9CDB"/>
<ellipse cx="382.674" cy="313.031" rx="30.9248" ry="18.2737" transform="rotate(20.7184 382.674 313.031)" stroke="white" stroke-width="1.5"/>
<path d="M108.726 254.711C48.1914 266.917 33.5671 202.793 74.9576 128.69C168.954 -11.8782 317.406 29.8639 340.045 57.6597C362.685 85.4555 344.491 118.797 257.252 133.393C170.014 147.99 184.393 239.452 108.726 254.711Z" stroke="white" stroke-width="1.5"/>
</svg>
